<svg xmlns="http://www.w3.org/2000/svg" id="Layer_1" data-name="Layer 1" viewBox="0 0 1080 1080"><defs><style>      .cls-1 {        fill: #fff;      }      .cls-2 {        fill: none;      }    </style></defs><path class="cls-1" d="m46.43,785.74c.64-.89,1.64-1.69,1.87-2.67,3.07-12.75,12.28-20.75,22.47-27.31,11.69-7.52,23.88-14.39,36.35-20.52,15.17-7.46,30.25-5.62,43.44,4.76,4.9,3.85,7.95,3.33,12.69.64,35.02-19.95,70-39.96,105.32-59.36,31.75-17.44,65.74-25.47,102.01-20.46,14.13,1.95,28.08,5.31,42.07,8.25,6.09,1.28,11.49.69,17.1-2.41,36.39-20.12,75.38-33.1,116.09-40.83,13.84-2.63,27.99-3.64,42-5.41,8.37-1.06,8.34-1.07,5.9-9.15-4.2-13.91-9.78-27.28-16.37-40.17-9.65-18.88-25.4-27.45-46.59-25.6-51.92,4.54-102.15-2.06-149.3-24.92-62.97-30.53-106.57-78.91-129.7-145.29-5.26-15.09-9.63-30.44-12.57-46.17-2.34-12.49,6.98-25.33,19.59-26.89,9.65-1.19,19.33-.51,28.97.08,33.62,2.08,66.91,6.49,99.43,15.57,50.97,14.22,95.64,39.36,132.55,77.61,30.1,31.19,48.4,68.36,54.18,111.3,2.28,16.95,13.18,27.15,24.41,37.46,2-.79,1.5-2.07,1.48-3.08-.55-34.22-1.17-68.46.07-102.67.45-12.35-3.12-22.14-11.89-31.04-34.34-34.86-54.63-76.77-61.73-125.25-6.69-45.68-.13-90.07,12.59-133.78,11.9-40.89,30.5-78.87,52.39-115.3,3.58-5.96,8.39-10.71,13.21-15.52h18.97c19.46,15.89,27.76,39.11,38.86,60.32,19.68,37.6,32.85,77.56,39.76,119.47,10.07,61.15,2.29,119.23-30.73,172.73-9.12,14.78-20.12,28.15-32.49,40.31-5.51,5.42-7.82,11.18-7.71,19.17.47,34.23.16,68.47.14,102.71v11.2c2.85.54,3.81-1.65,5-3.05,11.61-13.6,19.76-28.42,23.43-46.57,12.83-63.5,48.35-111.33,103.98-144.2,43.13-25.48,90-40.25,139.45-46.93,21.18-2.86,42.51-4.74,63.91-4.88,13.12-.08,22.22,7.38,25.34,19.99,1.13,4.57-.09,8.89-1.04,13.21-10.55,47.69-31.04,90.48-63.1,127.52-4.38,5.06-8.74,10.03-15.1,12.93-4.96,2.25-8.61.7-12.07-2.6-3.82-3.64-7.54-7.36-5.87-13.46,1.23-4.49,4.2-7.89,7.23-11.12,25.14-26.76,42.08-58.28,54.11-92.69.75-2.14,1.82-4.71.09-6.3-1.39-1.28-3.37.69-5.01,1.43-29,13.3-55.34,31.16-81.94,48.48-46.9,30.53-92.91,62.38-137.02,96.89-7.15,5.59-14.02,11.53-20.84,17.17.52,2.41,2.13,1.83,3.26,1.91,44.43,3.33,87.02-3.6,127.32-23.07,3.21-1.55,6.51-2.68,10-3.34,6.19-1.16,11.67,1.05,14.5,5.84,3.22,5.45,2.75,11.69-1.2,16.63-3.38,4.23-8.13,6.38-12.85,8.58-38.38,17.9-78.84,25.8-121.07,25.74-14.89-.02-29.74-1.01-44.6-1.46-6.98-.21-12.15,2.22-16.53,7.38-15.65,18.43-27.27,38.83-31.85,62.91-.73,3.83.29,4.31,3.63,4.55,83.29,5.99,157.48,34.9,221.97,88.27,15.76,13.04,31.77,25.78,47.65,38.67,6.23,5.06,12.42,6.36,19.89,1.9,10.87-6.49,22.8-10.38,35.62-8.93,17.79,2.02,32.16,11.48,38.74,27.45,8.01,19.45,8.86,40.11-4.39,58.82-2.84,4.02-6.73,6.91-10.71,9.67-55.59,38.57-111.21,77.1-166.78,115.71-15.99,11.11-34,16.64-53.01,18.81-40.24,4.61-80.52,8.89-120.82,13.01-33.46,3.42-66.98,6.16-100.43,9.7-25.23,2.67-50.12,2.09-74.46-5.55-17.88-5.61-35.55-11.87-53.37-17.66-20.83-6.76-41.75-13.22-62.57-20.03-11.31-3.7-21.19-1.47-30.18,5.98-5.58,4.63-11.32,9.07-16.77,13.85-6.16,5.4-8.96,11.75-6.59,20.35,7.08,25.67-5.18,39.13-20.98,47.99-13.61,7.63-27.3,15.1-41.06,22.45-8.87,4.74-18.84,5.54-28.53,6.85-4.82.65-9.33-2.05-13.53-4.55-12.23-7.29-20.45-18.29-27.4-30.28-19.94-34.39-39.65-68.93-59.49-103.38-19.47-33.81-38.99-67.59-58.53-101.35-3.28-5.66-6.05-11.5-7.76-17.82-.47-1.73-.42-3.79-2.52-4.66v-14.51l.02-.03Zm469.13,176.57c3.9-.18,7.82-.18,11.7-.58,30.68-3.16,61.35-6.39,92.02-9.6,42.87-4.49,85.71-9.19,128.61-13.37,23.54-2.29,45.5-8.53,65.17-22.07,50.67-34.88,101.4-69.68,152.1-104.52,3.23-2.22,6.2-4.75,8.67-7.82,7.26-9.01,7.67-20.51,1.05-29.37-6.71-8.98-14.77-10.74-26.76-5.76-2.05.85-4.01,1.94-5.98,2.98-37.49,19.67-74.89,39.5-112.49,58.95-21.77,11.26-44.81,19.24-69.29,21.47-34.8,3.16-69.68,5.36-104.53,7.93-20.76,1.53-41.52,2.99-62.28,4.47-9.46.68-18.9,1.67-28.37,1.91-7.43.19-13.56-5.57-14.25-12.32-.79-7.71,3.91-14.42,11.44-16.16,2.53-.58,5.12-.99,7.7-1.25,36.46-3.69,73.09-4.55,109.64-6.8,12.06-.74,24.13-1.36,36.2-2.04,2.26-.13,4.56-.02,4.48-3.44-.63-25.97-15.29-44.36-39.08-47.17-33.01-3.9-65.98-8.07-98.97-12.13-32.33-3.98-62.51-14.16-90.36-31.19-25.77-15.76-53.44-27.55-81.53-38.36-36.31-13.97-72.69-13.01-108.78.99-15.98,6.2-30.56,15.2-45.4,23.65-25.01,14.25-50.07,28.42-75.08,42.67-7.22,4.11-7.21,4.42-3.06,11.35,3.34,5.58,6.76,11.12,9.86,16.83,2.74,5.04,5.86,9.93,7,15.71,1.4,7.08-.22,12.11-4.85,14.74-6.17,3.5-12.79,2.76-18-2.04-3.04-2.8-5.33-6.2-7.41-9.73-8.03-13.6-16.02-27.21-24.03-40.82-6.48-11-11.92-12.63-23.43-6.86-10.31,5.17-20.12,11.21-29.78,17.49-10.84,7.05-14.02,9.84-5.95,25.18.52.99,1.12,1.93,1.67,2.89,29.75,51.26,59.52,102.5,89.24,153.78,12.11,20.89,23.86,42,36.27,62.71,5.67,9.46,10.85,10.52,20.57,5.39,8.86-4.68,17.57-9.68,26.15-14.86,17.77-10.73,18.24-13.04,7.84-30.98-18.92-32.62-37.78-65.28-56.63-97.93-2.89-5.01-5.34-10.14-5.19-16.22.15-6.35,4.46-8.95,9.3-11.28,4.52-2.18,8.48-1.6,12.24,1.88,4.44,4.11,7.68,9.05,10.76,14.15,14.34,23.68,28.78,47.3,42.93,71.09,2.51,4.22,4.19,4,7.27.85,4.8-4.92,9.89-9.57,14.92-14.27,17.5-16.37,37.81-21.67,60.71-14.29,37.27,12,74.46,24.21,111.93,35.58,14.39,4.37,28.62,9.55,44.06,8.58h-.02Zm-53.45-279.46c1.61,1.07,2.46,1.73,3.38,2.24,22.12,12.17,44.18,24.45,66.42,36.4,8.15,4.38,16.61,8.29,25.96,9.66,39.68,5.83,79.43,11.13,119.3,15.51,41.86,4.61,67.71,29.09,74.47,70.52,1.25,7.64,1.22,7.51,8.55,6.32,19.38-3.14,37.74-9.37,55.48-17.69,22.87-10.73,44.37-24.07,67.09-35.09,5.72-2.77,5.76-2.92,1-7.29-29.28-26.87-61-50.39-95.9-69.51-66.87-36.64-137.85-52.79-214.1-43.35-38.65,4.79-75.49,15.55-111.66,32.27h0Zm40.9-167.18c7.19,0,12.58.02,17.98-.01,1.3,0,2.82.04,3.3-1.48.5-1.57-.95-2.26-1.95-3.03-2.36-1.81-4.82-3.48-7.14-5.34-61.64-49.61-127.01-93.79-194.9-134.32-13.39-7.99-26.95-15.71-40.44-23.54-1.45-.84-3.24-2-4.61-.75-1.61,1.48.38,2.94.94,4.37.81,2.07,1.73,4.1,2.45,6.2,19.77,58.23,54.77,103.66,110.38,131.9,36.42,18.5,75.42,25.24,113.99,26Zm96.65-139.97v-11.26c-.11-74.21-.25-148.42-.3-222.63-.01-16.92.3-33.85.42-50.77.01-1.43.52-3.39-1.23-3.93-2.14-.66-2.72,1.42-3.43,2.89-2.02,4.18-4.02,8.36-5.96,12.57-17.82,38.69-30.84,78.66-34.64,121.45-1.85,20.74-1.34,41.3,1.65,61.71,4.39,29.95,16.89,56.77,34.52,81.24,2.27,3.15,4.75,6.14,8.97,8.72h0Zm31.34,1.67c2.25-3.06,3.41-4.69,4.62-6.29,28.43-37.4,41.37-79.75,40.09-126.53-1.29-47.29-13.55-91.99-32.57-135.03-3.5-7.91-7.17-15.74-10.76-23.6-.46.1-.92.21-1.39.31v291.13h.01Zm280.21-42.09c-.16-.49-.31-.99-.47-1.48-1.78.13-3.57.19-5.34.41-16.04,2-31.8,5.53-47.41,9.55-39.38,10.13-76.21,25.54-107.87,51.96-28.35,23.66-47.41,53.32-58.99,88.11-.35,1.05-.99,2.22-.12,3.13,1.2,1.26,2.47.31,3.44-.47,3.05-2.43,5.96-5.03,9.01-7.46,57.43-45.81,117.79-87.43,179.95-126.5,9.23-5.8,18.53-11.5,27.8-17.24h0Zm-372.28,148.65c.31-5-2-8.42-3.48-12.12-17.11-42.9-46.25-75.09-86.2-98.02-37.53-21.54-78.48-31.83-120.77-37.96-1.98-.29-4.15-1.25-7.94.41,75.79,46.23,148.81,94.33,218.39,147.7h0Z"></path><rect class="cls-2" width="1080" height="1080"></rect></svg>