<svg xmlns="http://www.w3.org/2000/svg" id="Layer_1" data-name="Layer 1" viewBox="0 0 965.75 964.04"><path d="m349.03,963.14c-24.24,0-48.51-.8-72.7.31-13.92.64-18.31-9.21-16.59-20,3.12-19.61,9.34-38.44,13.39-57.77,7-33.36,17.47-65.92,23.03-99.57,3.2-19.35.63-39.01,1.29-58.52.16-4.62-3.11-4.68-6.05-4.8-31.49-1.29-57.76-16.62-84.05-31.56-37.93-21.55-64.06-52.85-73.68-95.83-2.89-12.89-7.33-19.09-20.5-23.95-34.05-12.56-54.82-38.47-62.61-74.1-1.94-8.89-1.33-18.12-.01-27.14.61-4.16,0-7.2-3.35-10.22C6.27,423.08-15.56,357.32,14.59,293.94c2.3-4.83,2.17-9.09.98-14.21-5.34-23.01-11.3-45.98-14.77-69.3-3.82-25.71,13.86-60.98,52.56-70.15,15.78-3.74,31.24-.51,46.72,1.68,28.07,3.97,56.05,8.36,81.72,21.6,31.29,16.14,53.75,40.97,68.89,72.15,16.21,33.37,31.02,67.4,40.09,103.6,4.74,18.9,27.66,35.82,48.38,35.85,27.42.04,52.85-7.46,77.42-17.89,55.78-23.68,105.44-56.79,148.43-99.71,26.48-26.44,45.13-57.2,54.25-93.74,17.98-72.01,83.4-112.85,146.19-115.51,6.2-.26,9.22-1.56,8.04-8.33-.52-2.94-.1-6.04-.11-9.07-.06-20.7,9.11-29.83,29.59-29.67,10.09.08,19.73,1.99,28.61,6.79,4.07,2.2,7.44,2.3,11.46-.23,8.86-5.59,19-7.25,29.19-7.74,17.58-.85,32.68,9.85,36.57,27.03,1.78,7.86,5.66,9.93,12.68,10.64,13.41,1.35,23.65,8.77,31.55,19.13,7.92,10.39,9.44,21.96,3.99,34.23-2.92,6.56-5.49,13.63-10.68,18.45-6.49,6.01-5.76,11.85-3.06,18.99,4.05,10.72,4.54,21.59-1.78,31.75-3.13,5.03.79,6.81,3.45,9.37,15.66,15.09,22.88,33.31,20.29,55.1-1.54,12.98-8.55,18.47-21.4,16.32-20.61-3.46-41.17-7.25-61.75-10.86-12.05-2.11-11.67-1.97-14.78,9.73-5.72,21.53-20.49,36.09-38.7,47.41-10.48,6.52-21.25,12.81-33.3,16.14-4.96,1.37-5.34,3.84-4.67,8.51,7.58,52.53,18.05,104.93,17.49,158.14-.6,56.35-12.35,110.97-38.07,161.57-19.93,39.21-51.89,66.88-91.58,84.8-21.29,9.61-38.03,23.94-53.08,40.93-8.03,9.06-15.44,18.66-23.12,28.02-8.97,10.93-18.82,20.93-31.66,27.29-4.89,2.42-5.66,5.23-4.46,10.49,7.83,34.28,15.41,68.62,22.6,103.04,1.38,6.61,4.31,8.36,10.58,8.2,17.07-.44,34.15-.2,51.22-.5,5.54-.1,8.5,1.48,7.36,7.54-.2,1.07-.09,2.2-.1,3.3q-.25,18.37-18.31,18.37c-39.66,0-79.33,0-118.99,0-14.01,0-18.06-3.31-21.06-16.7-9.25-41.27-19.32-82.37-27.06-123.97-.72-3.86-2.86-6.33-6.67-7.58-8.28-2.71-16.54-3.92-25.07-1.01-15.86,5.41-31.73,10.82-47.7,15.9-4.77,1.52-6.89,4.27-8.37,8.94-9.35,29.31-15.88,59.46-26.39,88.41-2.77,7.63,2.64,7,6.92,7.01,19.83.08,39.67.35,59.48-.32,7.42-.25,9.29,2.3,8.46,8.91-.82,6.47,2.97,14.82-1.3,19.04-4.24,4.19-12.57,1.24-19.09,1.3-21.21.18-42.42.07-63.62.06Zm170.63-174.01c41.39-1.28,36.64,7.44,68.51-33.33,22.87-29.26,49.28-53.3,83.81-68.93,34.67-15.7,60.39-42.17,76.33-76.98,21.41-46.75,31.32-96.56,29.79-147.49-1.44-47.75-7.28-95.43-15.71-142.62-5.03-28.15-3.97-55.43,11.32-80.61,15.06-24.8,34.27-43.8,65.75-44.42,3.53-.07,5.32-1.93,7-4.76,4.78-8.03,9.12-16.48,14.99-23.66,7.59-9.28,9.27-17.57,5.2-29.67-6.11-18.19-15.47-33.2-31.76-42.59-43.02-24.8-86.69-20.82-129.15,1.08-34.03,17.55-52.06,48.16-61.06,84.25-6.8,27.26-19.27,51.42-36.86,73.01-30.2,37.07-66.64,67.09-106.86,92.64-34.95,22.2-71.48,41.17-111.74,51.94-21.85,5.84-44.01,11.57-66.69,5.73-28.34-7.31-50.59-23.65-58.8-52.38-10.93-38.27-25-75.09-43.88-109.96-14.77-27.28-36.81-46.76-66.65-57.24-27.93-9.82-56.6-13.38-85.99-13.19-26.41.17-42.51,20.52-36.32,46.39,2.37,9.89,4.99,19.71,7.65,29.52,2.46,9.08,2.42,8.89,10.02,2.46,28.1-23.81,60.31-36.75,97.46-36.77,4.68,0,6.86.95,5.48,6.03-1.69,6.19-1.36,12.58-1.23,18.89.09,4.63-1.52,6.34-6.18,6.3-7.14-.06-14.34-.77-21.42.72-45.26,9.58-75.1,36.61-88.33,80.67-12.3,40.94-1.49,76.95,26.84,108.28,3.79,4.19,6.32,4.49,9.09-.85,2.28-4.38,5.11-8.46,7.69-12.68,2.97-4.87,5.88-7.55,11.33-2.18,3.44,3.4,8.11,5.65,12.45,8.01,4.9,2.67,5.88,4.99,2.02,9.99-6.88,8.91-12.67,18.64-19.1,27.9-7.04,10.13-7.31,21.74-4.63,32.58,8.95,36.22,54.78,75.99,104.18,40.61,4.89-3.5,7.96-12.01,14.26-10.25,5.82,1.63,10.35,7.83,15.45,12.02.43.35.82.74,1.26,1.06,4.64,3.3,4.07,5.91-.15,9.62-14.65,12.87-30.29,23.82-49.77,27.94-4.17.88-5.29,2.82-4.45,6.98,4.45,22.12,13.74,41.73,29.76,57.82,25.5,25.61,56.43,42.22,91.12,50.73,21.53,5.28,43.92,7.25,66.01,10.06,29.16,3.72,53.16,15.3,68.26,41.8,2.17,3.8,5.23,7.07,7.76,10.68,17.03,24.28,40.53,35.47,69.98,34.86,7.98-.17,15.97-.03,25.98-.03ZM883.34,43.68c.07-1.61-1.81-5-3.23-8.57-2.79-7-7-9.29-14.05-5.39-5.04,2.79-10.54,4.75-15.53,7.63-8.93,5.16-17.65,5.17-26.67.36-4.59-2.45-9.32-4.68-14.12-6.68-4.15-1.72-6.85.17-6.23,4.48,1.09,7.62,2.33,15.29,11.8,17.82,5.54,1.48,10.78,4.07,16.13,6.25,25.18,10.27,44.31,27.21,56.77,51.51,4.95,9.65,7.55,19.98,9.49,30.57,1.54,8.4,5.98,11.81,12.8,10.13,8.1-2,7.28-7.88,5.5-13.75-1.59-5.24-3.16-10.62-5.73-15.4-3.96-7.37-3.41-13.17,2.94-19,5.04-4.62,9.57-9.93,12.78-16.1,2.43-4.66,7.17-9.09,2.55-14.94-4.77-6.04-11.28-6.36-18.02-4.81-2.61.6-4.96,2.29-7.45,3.43-10.53,4.84-21.23-2-21.11-13.66.04-3.83.74-7.66,1.39-13.88ZM309.51,934.46q16.32.27,20.99-14.88c.48-1.57,1.1-3.11,1.55-4.69,8.01-27.68,15.85-55.41,24.13-83.01,1.95-6.5.32-9.33-6.04-11.37-6.49-2.08-12.64-5.33-18.74-8.46-9.74-5-9.98-4.89-12.36,5.6-7.5,33.18-14.94,66.37-22.79,99.47-4.06,17.13-4.44,17.05,13.26,17.34Zm105.62-144.13c-11.09-14.41-21.96-28.53-32.83-42.64-.84-1.09-1.66-2.2-2.55-3.24-3.68-4.27-8.21-7.72-13.62-8.86-10.73-2.26-21.65-3.68-32.47-5.55-4.97-.86-6.36,1.51-6.09,5.99.38,6.31,1.93,12.96.54,18.89-4.78,20.28,6.52,27,22.78,34.95,21.83,10.68,41.68,14.3,63,1.27.23-.14.46-.3,1.25-.82Zm104.04,29.13c-1.93,0-3.85-.03-5.78,0q-11.62.2-9.58,11.48c5.92,33.26,15.8,65.67,21.28,99.02.47,2.88,1.59,4.52,4.72,4.47,8.8-.16,17.6-.2,26.39-.39,3.93-.08,5.27-1.92,4.08-5.89-9.31-31.35-13.51-63.9-22.36-95.35-3.92-13.94-4.2-13.86-18.76-13.33ZM925.82,208.42c3.74-1.21,7.63,1.19,9.31-2,1.92-3.64-2.01-5.76-3.81-8.31-9.16-12.97-23.47-16.43-37.63-19.77-6.37-1.51-17.1,12.59-15.01,18.93.61,1.86,1.91,2.5,3.61,2.83,14.79,2.82,29.57,5.66,43.52,8.33Zm-86.77,22.79c.94-8.67-2.99-7.83-7.04-6.5-20.67,6.81-31.36,22.9-38.84,41.92-.61,1.56-.89,3.42.38,4.67,1.52,1.49,3.03-.17,4.4-.73,11.85-4.85,22.25-11.94,30.99-21.25,5.32-5.66,9.21-12.27,10.1-18.12Z"></path><path d="m145.69,960.2c-41.23.25-78.6-11.58-111.78-36.03-13.34-9.83-22.76-22.8-29.17-38.19-10.5-25.19-2.62-46.37,14.27-65.11,12.53-13.9,28.64-23.05,46.15-29.49,29.77-10.95,60.4-14.87,92.24-14.3,33.7.6,78.58,29.53,88.21,75.52,9.46,45.21-19.26,92.08-63.88,104.36-11.79,3.25-23.96,3.04-36.04,3.24Zm-6.16-153.57c-17.15.6-31.69,1.8-45.72,6.17-21.1,6.56-41.84,13.69-56.7,31.64-8.95,10.81-9.86,22.2-4.1,34.53,6.06,12.98,16.27,22,28.38,29.04,31.66,18.42,65.84,25.58,102.2,22.16,44.12-4.15,68.68-52.95,45.54-90.7-16.55-26.99-41.71-35.95-69.6-32.85Z"></path><path d="m135.84,719.46c.04,14.56.02,14.36-14.39,15.37-27.67,1.95-51.95,13.13-74.46,28.51-4.65,3.18-7.41,3.88-9.87-1.77-.54-1.23-1.56-2.25-2.39-3.35-11.57-15.38-11.46-15.19,4.8-24.98,26.25-15.82,54.24-26.2,85.01-28.63,11.3-.9,11.27-1.25,11.3,9.89,0,1.65,0,3.3,0,4.95Z"></path><path d="m525.19,450.92c-19.62,0-30.84-11.15-30.77-29.15.07-16.17,6.94-30.39,14.16-44.32,8.17-15.74,8.36-15.65,22.92-5.79,1.82,1.23,3.52,2.66,5.41,3.78,3.8,2.26,4.22,4.38,1.83,8.6-5.12,9.06-9.43,18.61-13.68,28.13-2.91,6.53-1.04,8.57,6.06,7.5,5.42-.82,9.61-4.01,13.68-7.25,24.33-19.37,41.25-44.75,57.17-70.9,3.85-6.33,7.61-12.79,10.6-19.55,2.25-5.08,4.66-5.02,8.74-2.47,4.18,2.61,8.44,5.59,13.09,6.87,7.05,1.94,7.66,4.38,4.08,10.65-15.47,27-31.6,53.56-52.5,76.78-14.66,16.28-30.79,30.79-53.1,35.91-3.19.73-6.49,1.02-7.68,1.2Z"></path><path d="m660.99,467.45c-31.52-.13-46.82-28.13-33.65-51.9,1.68-3.03,3.27-3.1,5.83-1.54,5.63,3.45,11.42,6.42,18.15,7.31,4.58.6,3.26,4.59,3.01,7.26-.65,6.99.57,9.51,8.91,8.03,23.64-4.2,45.75-11.33,64.38-27.09,2.61-2.21,4.52-.87,6.33,1.1,2.98,3.23,5.74,6.68,8.94,9.67,9.14,8.57,9.26,8.56-.75,15.55-25.98,18.13-54.96,28.13-81.15,31.61Z"></path><path d="m819.81,134.9c.05,9.52-9.82,19.77-19.27,20-9.77.24-19.18-9.52-19.2-19.91-.02-9.55,8.81-19.03,17.92-19.25,10.44-.25,20.48,9.12,20.54,19.16Z"></path></svg>