<svg xmlns="http://www.w3.org/2000/svg" id="Layer_1" data-name="Layer 1" viewBox="0 0 973.88 846.81"><defs><style>      .cls-1 {        fill: #fff;      }    </style></defs><path class="cls-1" d="m346.05,587.19c18.1-12.96,35.83-25.7,53.6-38.39,19.63-14.03,39.06-28.34,58.98-41.94,22.21-15.16,47.8-11.52,64.11,8.38,14.48,17.67,13.29,44.81-3.7,60.45-10.86,10-22.96,18.66-34.65,27.75-43.52,33.82-87.1,67.56-130.64,101.35-2.16,1.68-4.29,3.43-6.26,5.32-3.15,3.02-3.18,7.12-2.19,10.74,1.06,3.9,5.04,2.44,7.79,2.44,89.16.08,178.33-.02,267.49.24,6.97.02,7.73-2.44,7.92-8.44,1.69-53.31,20.69-97.74,67.4-127.12,19.47-12.25,40.64-20.7,63.89-21.74,28.72-1.28,57.55-3.19,85.44,6.99,49.02,17.89,80.09,52.09,93.38,102.36,3.46,13.09,3.01,26.69,2.35,40.11-.31,6.33,1.7,7.89,7.86,7.7,22.17-.69,24.41,1.4,24.69,23.06.36,27.7.42,55.41.34,83.11-.04,12.89-4.84,17.25-17.55,17.25-249.11-.06-498.23-.11-747.34-.15-62.28,0-124.56.05-186.84.07-2.74,0-5.49.02-8.23-.17-8.66-.63-13.61-4.65-13.69-13.3-.3-31.81-.34-63.63.24-95.43.2-10.98,4.39-14.23,15.77-14.55,13.71-.38,27.43-.34,41.15-.12,5.39.08,7.13-1.45,6.57-7.15-3.7-37.75-2-75.64-1.57-113.44.18-15.76.14-31.86,3.93-47.42,11.32-46.52,51.76-81,100.4-83.43,26.5-1.32,53.27-2.39,79.72.85,49.99,6.12,86.3,41.01,95.48,90.58,1.43,7.71,2.67,15.46,4.14,24.04Zm-254.38,107.79c.18,0,.35,0,.53,0,0,38.4.03,76.79-.04,115.19,0,4.2-.23,7.11,5.83,7.08,69.68-.3,139.35-.42,209.03-.17,7.45.03,8.43-2.66,8.4-9.04-.13-31.53-1.04-63.07.48-94.58.25-5.11-1.74-8.05-5.8-10.71-26.11-17.15-52.56-33.83-78-51.94-22.83-16.25-36.53-44.62-13.03-75.62,16.04-21.16,45.03-27.11,67.41-12.84,7.62,4.86,14.82,10.36,22.26,15.5,1.5,1.03,3.03,2.73,5.14,1.51,1.99-1.15,1.85-3.27,1.72-5.14-.63-9.18-3.87-17.68-7.81-25.79-13.3-27.39-34.12-45.07-65.53-46.23-26.02-.96-52.12-.69-78.15.09-31.47.93-60.94,25.11-68.73,55.63-3.06,11.98-3.84,24.29-3.77,36.7.18,33.46.06,66.92.06,100.37Zm553.12,57.62c-19.2,0-38.4,0-57.61,0-77.9,0-155.81.1-233.71-.17-6.97-.02-8.69,1.87-8.47,8.63.51,16.16.43,32.36.03,48.53-.15,6.28,1.41,8.35,8.09,8.28,51.56-.49,103.13-.74,154.69-.74,143.46,0,286.92.11,430.38.4,5.33.01,6.43-1.41,6.35-6.33-.27-16.45-.5-32.92.08-49.36.26-7.45-1.75-9.45-9.34-9.43-96.83.28-193.66.18-290.49.18Zm140.75-29.43v.04c14.54,0,29.07.01,43.61,0,26.05-.02,52.11-.18,78.16,0,5.82.04,7.99-2.02,7.22-7.77-.66-4.88-.92-9.83-1.25-14.75-3.27-48.83-36.22-89.28-83.11-102.02-7.85-2.13-9.58-.48-7.54,7.5,2.98,11.66,6,23.3,9.2,34.9.86,3.11,1.18,5.7-1.17,8.37-10.7,12.13-21.86,23.84-34.04,34.45-8.41,7.33-14.09,7.03-22.38-.64-9.26-8.56-17.6-18.13-27.12-26.36-6.89-5.95-8.16-12.35-5.78-20.48,3.01-10.24,5.82-20.54,8.58-30.85,1.83-6.86.21-8.79-6.8-7.41-9.2,1.82-17.84,5.45-25.88,10.19-40.4,23.81-59.91,59.33-59.66,106.15.04,6.82,1.65,8.89,8.65,8.83,39.77-.33,79.53-.16,119.3-.16Zm-523.95-139.12c-12.42.28-21.14,6.32-24.41,16.55-3.13,9.77.45,19.4,10.22,26.31,10.06,7.11,20.25,14.06,30.54,20.83,16.68,10.98,33.45,21.82,50.28,32.57,4.17,2.66,8.32,3.4,12.67-.63,15.31-14.16,32.58-25.89,48.94-38.75,35.11-27.58,70.5-54.82,105.6-82.43,8.41-6.61,10.49-17.41,5.79-24.63-4.67-7.19-15.18-8.86-25.14-3.95-1.47.72-2.89,1.58-4.22,2.53-16.94,12.09-33.86,24.21-50.79,36.33-25.17,18.02-50.24,36.17-75.54,54-10.56,7.44-12.71,7.1-22.58.1-16.3-11.57-32.63-23.09-48.93-34.66-3.9-2.77-8.02-4.75-12.44-4.17ZM29.06,784.48c0,9.05.24,18.1-.1,27.14-.18,4.71,1.31,5.86,5.98,5.89,7.67.05,15.32.23,23-.07,4.19-.16,6.33-1.5,5.75-5.78-2.45-18.01-1.58-36.12-1.61-54.2,0-3.33-.76-5.02-4.54-4.92-7.95.21-15.91.21-23.85,0-3.65-.1-4.73,1.31-4.67,4.8.17,9.04.06,18.09.04,27.14Zm772.1-147.59c-3.32-12.49-6.55-24.58-9.75-36.67-.82-3.12-1.19-7.43-4.83-7.62-4.16-.21-5.29,4.35-6.28,7.59-2.46,8.06-3.26,16.86-6.91,24.28-5.12,10.42-1.94,17.37,5.98,23.85,1.47,1.2,2.75,2.65,4.12,3.97,1,.96,2.07,1.78,3.59,1.46,2.19-.45,14.07-15.05,14.07-16.86Z"></path><path class="cls-1" d="m472.18.34c60.62,0,121.25.76,181.85-.33,29.19-.53,51.82,15.44,52.9,49.72.99,31.17,2.27,62.5-1.19,93.66-2.96,26.59-21.16,42.93-48.18,42.98-61.71.12-123.43.13-185.14-.12-7.74-.03-13.42,2.26-18.85,7.78-28.47,28.93-57.23,57.57-85.93,86.27-4.07,4.07-8.26,8.03-12.64,11.75-5.4,4.59-11.44,4.39-17.74,1.84-6.47-2.62-6.56-8.3-6.59-13.75-.12-28.23-.28-56.47.1-84.7.1-7.22-2.03-9.55-9.28-9.18-11.77.59-23.58.31-35.37.16-30.26-.39-49.73-18.46-50.59-48.73-.86-30.41-.81-60.89.04-91.3.76-27.44,21.42-45.97,49.83-46.03,62.26-.12,124.53-.04,186.79-.04v.04Zm.57,28.5c-55.97,0-111.95,0-167.92,0-8.5,0-17.01-.6-25.46.87-8.84,1.54-14.47,8.3-14.02,17.25,1.52,30.14.9,60.29.26,90.44-.27,12.93,3.61,18.11,16.41,19.88,4.59.63,9.29.62,13.94.59,15.64-.11,31.28-.71,46.91-.44,13.32.23,17.23,4.46,16.54,17.78-1.1,21.13.26,42.23.14,63.34-.01,1.95-1.43,4.75,1.56,5.65,2.15.64,3.23-1.56,4.56-2.89,24.41-24.47,49.19-48.58,73.04-73.58,7.4-7.75,15.22-10.48,25.28-10.31,16.73.29,33.47.03,50.21.1,46.64.18,93.28.38,139.92.61,14.55.07,23.39-6.71,23.51-19.34.3-30.44.26-60.89,0-91.33-.09-10.82-7.2-17.57-18.05-18.12-6.85-.35-13.71-.46-20.57-.46-55.42-.03-110.85-.02-166.27-.02Z"></path><path class="cls-1" d="m565.58,267.27c29.36,0,58.72-.11,88.07.04,16.37.08,20.78,4.79,20.78,21.27,0,38.68.02,77.36-.01,116.03,0,12.09-4.72,16.81-16.97,17.01-6.86.11-13.73.21-20.57-.07-5.68-.23-6.3,2.01-4.84,6.94,3.64,12.32,6.91,24.76,10.14,37.2,1.72,6.63.59,12.83-5.46,16.74-6.27,4.05-12.57,2.81-18.28-1.72-22.98-18.24-46.02-36.42-68.87-54.83-4.36-3.51-8.79-4.74-14.31-4.63-18.93.37-37.86.29-56.79.35-2.19,0-4.4.04-6.58-.2-13.11-1.45-15.5-3.87-15.58-16.94-.23-39.5-.37-78.99-.39-118.49,0-13.75,4.23-18.29,18.3-18.43,30.45-.32,60.91-.1,91.36-.1,0-.06,0-.11,0-.17Zm35.46,162.88c2.28-7-1.23-12.14-2.23-17.61-2.04-11.17,3.37-18.28,14.68-18.71,7.4-.28,14.84-.73,22.21-.24,7.38.49,9.92-1.59,9.77-9.53-.51-27.41-.28-54.85.02-82.27.05-4.86-1.27-6.02-5.98-5.99-48.55.29-97.1.53-145.65.29-6.79-.03-8.3,1.97-8.27,8.21.16,27.42.04,54.85-.28,82.27-.07,5.87,1.95,7.48,7.69,7.3,15.62-.49,31.28.04,46.9-.61,10.53-.44,18.92,2.72,26.86,9.68,10.82,9.49,22.54,17.96,34.29,27.19Z"></path><path class="cls-1" d="m94.77,344.08c-1.24-58.79,51.05-108.65,109.54-107.8,54.33.79,107.39,42.42,107.66,109.02.25,61.22-49.02,108.02-110.91,107.85-56.54-.16-108.61-50.34-106.3-109.07Zm108.17-78.7c-44.44.12-79.78,35.46-79.73,79.91.05,43.72,35.1,79.26,80.32,79.84,43.78.56,81.27-37.37,80.46-80.83-.79-42.64-35.74-80.19-81.05-78.92Z"></path><path class="cls-1" d="m878.9,454.25c2.57,43.15-36.51,93.2-92.43,93.32-56.66.12-94.33-49.51-94.12-91.45.26-50.79,42.35-93.12,92.69-94.06,53-.99,96.32,47.86,93.87,92.2Zm-93.39,64.86c34.75.39,64.37-28,64.83-62.14.51-37.05-27.56-65.73-64.85-66.27-34.29-.5-63.76,28.64-64.51,63.77-.73,34.16,29.32,64.25,64.53,64.65Z"></path></svg>