<svg xmlns="http://www.w3.org/2000/svg" id="Layer_1" data-name="Layer 1" viewBox="0 0 946.14 645.37"><defs><style>      .cls-1 {        fill: #fff;      }    </style></defs><path class="cls-1" d="m914.99,255.87c-5.66,31.9.6,70.08-2.27,108.06-.46,6.05,1.94,11.34,5.49,16,12.09,15.88,19.63,33.32,21.1,53.55.57,7.81,3.97,15.41,6.11,23.09,2.2,7.92-.65,11.58-8.87,11.34-11.34-.32-24.36-12.57-24.74-23.77-.53-15.95-4.08-30.67-12.8-44.48-6.95-11.01-12.49-23.05-13.99-36.4-.24-2.16-.27-5.06-3.07-5.23-2.51-.16-3.52,2.55-4.46,4.51-2.75,5.71-3.13,11.63-1.05,17.68,3.24,9.44,7.15,18.84,13.91,26.06,7.65,8.17,9.17,17.27,5.43,26.56-17.8,44.22-16.86,90.12-12.43,136.15,1.8,18.71-3.27,36.66-2.93,55.16.22,11.84-7.57,18.85-19.39,19.64-17.54,1.16-35.14,2.4-52.73.92-3.78-.32-7.65-1.08-11.2-2.39-9.17-3.4-10.49-9.43-4.02-16.9,6.4-7.39,15.6-11.04,22.94-17.26,7.16-6.07,11.62-13.35,14.32-22.15,13.8-44.91,6.57-87.76-12.25-129.59-3.27-7.26-5.83-6.08-9.08-.25-11.35,20.39-20.54,41.77-29.53,63.28-7.8,18.66-13.9,37.72-17.63,57.6-1.31,6.96-4.75,13.18-8.53,19.17-2.22,3.51-4.08,7.14-5,11.32-2.66,12.1-10.22,19.23-22.41,19.66-15.02.53-30.09.18-45.12-.24-5-.14-10.92-.61-12.77-6.56-1.95-6.25,1.31-11.2,6.1-15,4.76-3.78,9.82-7.16,14.6-10.91,18.51-14.56,29.42-34.09,37.05-55.95,2.62-7.49,6.44-14.6,10.08-21.69,7.51-14.61,8.97-29.79,5-45.61-.72-2.87-1.55-5.87-4.77-6.59-3.39-.76-5.5,2.02-6.85,4.35-6.53,11.31-15.86,11.92-27.26,8.7-27.95-7.88-51.84-23.23-74.47-40.54-10.19-7.79-20.26-12.58-33.31-11.68-16.64,1.15-32.9-1.43-49.37-4.73-29.5-5.9-58.67-.98-86.77,8.99-12.43,4.41-19.5,14.39-20.68,27.64-2.13,23.89-3.79,47.81-7.09,71.59-1.73,12.47.03,24.97,2.25,37.25,1.7,9.41-.08,17.93-5.13,25.65-5.46,8.35-10.27,16.94-13.51,26.37-2,5.83-6.04,8.48-12.11,9.16-13.35,1.49-26.64,3.47-39.98,5.04-9.63,1.14-18.29-1.95-26.35-6.94-2.62-1.63-5.03-3.47-6.79.81-3.98,9.67-13.15,10.99-21.48,12-13.35,1.63-26.88,1.08-40.07-2.15-11.73-2.88-13.5-9.18-5.66-18.68,5.79-7,12.78-12.51,20.71-16.86,19.01-10.42,28.69-26.17,29.45-48.1.81-23.41,1.29-46.63-4.56-69.61-2.99-11.76-5.54-23.78-4.14-36.06,1.14-9.94-3.17-13.21-12.61-12.47-19.36,1.53-29.7-10.39-37.45-25.9-2.23-4.47-2-9.34-2.39-14.09-1.54-18.71-12.15-33.47-21.58-48.56-13.55-21.69-29.21-42.14-41.71-64.38-19.79-35.22-50.23-46.78-88.37-45.09-23.72,1.05-47.24-.77-70.52-6.15-13.35-3.09-23.28-9.72-26.57-23.14-3.61-14.73-2.25-28.68,11.37-38.82,32.27-24.03,60.39-52.28,85.68-83.51,4.83-5.96,4.59-9.05-1.28-13.87-16.03-13.14-26.7-30-31.78-50.18-.85-3.36-1.05-6.95-1.06-10.44,0-4.55,2.14-7.71,6.62-9.53,4.28-1.74,7.63-.29,10.51,2.38,2.79,2.59,5.03,5.76,7.53,8.66,5.42,6.3,10.58,12.85,16.35,18.8,6.92,7.13,14.47,9.28,25.04,6.03,36.03-11.06,70.01-.19,92.85,30.14,19.51,25.92,44.26,37.89,76.74,36.83,55.22-1.8,109.65,6.25,164.15,14.24,50.32,7.38,100.94,12.25,151.93,4.53,46.98-7.11,94.48-6.01,141.8-7.68,24.96-.88,49.79-.25,74.77,1.34,48.71,3.11,67.42,32.85,78.61,74.62,5.16,19.29,4.53,39.33,3.46,65.2ZM115.86,73c-17.97,26.43-37.77,50.62-61.53,71.39-12.76,11.15-25.68,22.13-38.65,33.05-8.92,7.51-9.48,17.11-6.51,27.13,2.89,9.74,10.44,15.21,20.05,17.3,11.87,2.59,23.87,4.16,36.13,4.17,16.6.02,33.16.37,49.8,1.45,37.27,2.43,61.95,21.53,80.43,52.55,11.41,19.15,22.89,38.37,36.76,56.09,14.53,18.58,23.86,39.79,27.55,63.51,2.9,18.64,12.72,25.92,31.75,25.87,14.39-.04,18.31,3.89,18.71,18.77.19,7.01-.3,13.98,1.33,20.99,6.74,29.01,12.15,58.07,8.86,88.26-2.41,22.14-10.49,39.86-30.52,51.16-7.23,4.08-13.99,9.02-19.84,15.01-1.81,1.86-3.51,4.27-2.5,6.86,1.06,2.73,3.99,2.79,6.62,2.82,8,.09,16.04-.17,24,.44,11.89.9,21.18-1.98,26.72-13.74,1.96-4.15,6.19-7.22,9.38-10.8,2.11-2.36,5.09-4.36,5.24-7.8.67-15.4,6.56-29.99,6.87-45.45.36-17.92.57-35.99,4.61-53.45,3.67-15.9,11.91-29.82,26.99-37.79,8.64-4.57,12.09-1.91,13.09,7.79.95,9.22,1.84,18.48,3.56,27.57,6.72,35.34,5.82,68.63-21.55,96.56-7.55,7.71-16.31,13.23-24.94,19.23-2.26,1.57-5.45,3.25-4.52,6.66.84,3.1,4.19,3.83,6.95,4.39,2.78.57,5.75.79,8.57.51,12.72-1.3,25.43-2.78,38.13-4.29,5.21-.62,8.91-3.45,10.8-8.37,3.59-9.3,8.5-17.87,14.01-26.13,3.42-5.13,3.4-10.76,2.6-16.64-5.3-38.84-.46-77.26,5.45-115.55,2.57-16.68,13.11-27.15,29.09-32.49,14.32-4.79,29.1-7.4,43.92-9.68,13-2.01,26.22-3.03,39.11.45,15.3,4.13,30.8,6.32,46.53,5.01,17.45-1.45,31.79,4.63,44.99,15.38,18.95,15.44,39.84,27.61,62.73,36.45,11.35,4.38,19.64,5.29,27.78-7.12,8.79-13.41,17.4-11.14,23.82,3.75,9.85,22.84,3.07,43.19-9.33,62.56-6.93,10.82-13.4,21.93-16.46,34.38-2.15,8.73-6.31,15.92-11.75,22.68-7.49,9.3-16.16,17.25-26.49,23.35-3.05,1.8-6.47,4.28-5.4,8.25,1.16,4.25,5.44,2.31,8.3,2.29,11.2-.07,22.4-.37,33.59-.87,15.8-.7,15.77-.81,20.14-16.23.43-1.51,1.01-3.1,1.94-4.33,11.82-15.42,16.62-33.73,20.97-52.06,7.85-33.02,23.37-62.71,39.17-92.28,2.62-4.91,5.63-11.38,11.99-11.16,6.14.22,7.58,7.25,9.95,11.87,17.75,34.61,22.48,71.34,18.62,109.84-2.6,26-10.49,47.94-35.25,60.76-3.44,1.78-9.32,3.55-8.23,8.17,1.32,5.53,7.83,4.37,12.29,4.93,4.72.59,9.58.1,14.38-.07,9.91-.35,19.82-.96,29.74-1.16,11.72-.24,14.5-2.63,14.8-14.71.18-7-2.33-14.62-.32-20.9,4.28-13.42,2.99-26.57,1.18-39.79-5.59-40.77-.57-80.45,12.66-119.05,4.79-13.98,4.64-25.55-5.31-37.33-9.99-11.82-13.05-26.16-9.61-41.46,7.22-32.07,17.16-63.63,17.79-96.94.07-3.63-.53-9.64,5.31-9.77,5.97-.13,6.82,5.85,6.67,9.89-.97,26.78.75,53.86-7.49,79.93-1.9,6.01-2.76,12.02-.75,17.89,3.5,10.25,6.22,20.91,12.36,30.03,9.75,14.48,13.82,30.76,15.8,47.74.71,6.09,3.54,10.92,7.89,14.87,1.91,1.74,4.72,2.43,7.16,1.07,3-1.67,1.87-4.48.93-6.8-2.42-5.98-4.08-12.19-4.46-18.57-1-16.87-6.75-31.67-17.83-44.52-4.7-5.46-7.31-11.99-7.17-19.37.67-35.49-1.34-70.97,1.03-106.49,2.12-31.78,4.86-63.61-11.9-93.54-12.14-21.69-25.41-39.9-52.99-40.93-11.49-.43-22.94-1.89-34.43-2.5-37.15-1.97-74.17,2.09-111.26,2.94-24.57.57-49.51-2.01-73.75,3.13-38.5,8.17-76.9,6.74-115.52,1.96-28.22-3.49-56.42-6.86-84.52-11.42-41.45-6.73-83.5-7.61-125.43-7.8-33.67-.15-59.7-13.05-79.35-40.46-11.79-16.43-28-26.5-48.67-29.4-12.97-1.82-25.51-.97-38.09,1.74-14.42,3.1-26.54-.24-35.89-12.16-4.54-5.79-9.31-11.4-14.06-17.02-1.83-2.16-3.89-5.38-6.93-4.01-3.72,1.68-2.31,5.57-1.23,8.41,8.32,21.98,19.83,41.48,42.82,53.18Zm272.02,454.41c.28-18.63-.89-33.88-4.51-48.89-.77-3.21-1.92-6.07-5.72-6.88-4.01-.85-5.66,1.69-7.45,4.53-7.23,11.49-12.29,23.7-13.69,37.37-2.76,26.98-2.12,54.3-8.11,80.95-.5,2.21-1.24,4.7,1.17,6.04,2.35,1.32,4.22-.76,5.92-2.02,2.03-1.5,3.91-3.27,5.63-5.13,17.99-19.56,33.68-40.04,26.76-65.98Z"></path></svg>