<svg xmlns="http://www.w3.org/2000/svg" id="Layer_1" data-name="Layer 1" viewBox="0 0 934.57 809.09"><defs><style>      .cls-1 {        fill: #fff;      }    </style></defs><path class="cls-1" d="m137.09,617.82c-13.71-6.26-25.51-13.11-36.38-21.69-44.5-35.13-75.19-79.72-86.69-135.1-14.33-69.02,6.07-129.78,51.79-182.41,9.72-11.19,21-21.04,31.67-31.39,2.27-2.2,5.38-4.27,4.77-7.55-1.87-10.06,4.57-15.37,11.14-20.57,20.41-16.18,42.4-28.86,69.54-28.4,8.35.14,11.2-3,10.02-11.13-1.39-9.6-1.1-19.26-.37-28.97.51-6.78,3.51-9.49,9.92-10.9,17.18-3.77,33.87-.19,50.34,3.38,9.54,2.07,13.81-.33,16.82-9.25,4.49-13.29,12.35-24.7,23.12-33.87,14.06-11.98,30.8-11.75,43.86.4,15.26,14.19,17.39,30.15,6.51,45.99-7.17,10.43-13.91,21.16-21.43,32.64,11.26,1.36,20.01-3.88,29.46-5.02,14.67-1.78,28.98-1.31,43.06,3.25,15.72,5.1,19.23,12.18,14.78,28.19-1.36,4.91-5.82,11.81-.33,14.81,5.49,2.99,8.12-4.82,11.2-8.51,17.37-20.8,37.22-37.17,65.91-38.51,4.63-.22,5.04-2.65,3.84-6.23-12.62-37.65-8.47-73.51,11.96-107.41,30.57-50.72,88.36-69.34,140.09-54.75,43.89,12.38,72.43,41.28,86.2,84.81,4.3,13.59,4.48,12.71,19.11,11.25,50.9-5.08,92.65,32.08,91.89,85.85-.11,7.88,1.66,10.33,9.22,12.31,42.38,11.11,69.03,45.7,65.07,88.55-1.43,15.52,1.13,27.97,6.56,41.9,20.38,52.27-24.98,112.66-90.36,100.22-2.04-.39-4.11-1.32-6.09-1.16-4.85.4-8.88-7.34-12.75-3.02-2.65,2.95-1.44,9.24-2.23,13.99-6.69,40.55-13.28,81.12-20.32,121.61-1.48,8.5-.46,15.4,5.61,21.84,6.39,6.78,11.13,18.57,18.36,20.17,8.02,1.77,12.75-11.21,19.31-17.34,11.9-11.12,24.85-15.04,39.77-8.07,15.67,7.33,21.59,21.27,20.8,37.49-.44,9.01,1.57,12.56,10.66,14.72,13.93,3.31,23.34,13.17,28.22,26.63,10.83,29.84-1.61,57.86-31.4,70.64-5.33,2.29-8.82,4.35-7.84,11.11,5.52,37.78-36.87,58.74-64.5,50.46-6.54-1.96-13.5-3.13-19.15-7.59-3.41-2.7-6.22-1.88-6.01,2.69.52,11.68-4.72,19.28-15.64,22.72-12.06,3.79-24.3,3.93-34.55-4.24-12.98-10.34-24.82-22.13-35.05-35.21-3.58-4.58-5.16-5.83-8.52-.62-1.49,2.32-3.43,4.35-4.94,6.67-13.32,20.44-32.77,28.71-56.52,28.65-88.95-.22-177.85-1.61-266.7-6.91-71.52-4.27-142.91-9.6-213.76-20.12-38.96-5.78-76.91-16.84-113.99-30.21-18.07-6.51-34.37-16.45-44.93-33.49-11.25-18.14-9.45-31.46,6.13-46.15,11.83-11.15,26.31-17.65,41.31-23.09,22.15-8.04,45.26-12.51,68.12-17.88,4.36-1.02,8.77-1.75,14.31-6.16Zm382.33-194.63c.49-26.91-5.35-52.51-15.75-76.82-19.74-46.13-52.94-80.2-96.29-105.19-9.61-5.54-15.07-5.47-22.65,3.02-6.1,6.84-4.27,8.99,2.17,12.67,15.46,8.82,29.12,19.95,40.01,34.13,17.81,23.18,13.81,33.21-15.97,37.9-39.51,6.22-77.94-.1-115.39-12.7-9.44-3.18-14.5-1.87-20.61,6.4-21.49,29.08-51.16,44.41-87.01,48.27-7.98.86-12.06-2.08-13.89-10.06-5.74-25.06-.64-48.8,8.73-71.79,3.62-8.87,1.59-12.46-7.14-14.67-16.06-4.07-32.17-8.3-46.9-16.09-6.73-3.56-11.78-2.21-16.85,2.45-9.18,8.42-19.22,16.06-27.44,25.33-47.04,53.08-67.41,113.8-48.29,183.92,16.95,62.17,58.76,104.32,114.18,134.28,9.95,5.38,20.18,11.4,32.33,8.9,27.85-5.73,56.28-6.67,84.37-10.44,48.05-6.45,96.63-6.71,144.82-11.87,10.6-1.13,17.8-5.88,25.49-11.85,51-39.61,79.04-91.14,82.07-155.79Zm307.34-79.7c12.67.91,23.49-.11,33.74-5.38,24.37-12.55,38.55-43.32,32.58-71.26-6.36-29.77-30.11-50.1-61.19-50.49-15.44-.2-17.32-.87-15-18.41.23-1.71.7-3.39.96-5.1,4.22-27.95-6.3-49.45-29.32-64.96-14-9.43-30.06-10.22-46.01-7.4-11.96,2.11-12.94,14.42-17.29,22.91-13.46,26.3-33.39,44.5-61.93,53.04-5.73,1.71-11.29,3.38-13.35-4.33-1.84-6.87.44-12.28,7.71-14.75,3.92-1.33,7.91-2.49,11.72-4.09,30.96-13.01,48.25-44.36,40.87-73.93-11.32-45.36-45.5-72.64-94.08-78.65-59.1-7.31-117.5,45.19-114.32,108.39.9,17.8,7.17,33.55,13.67,49.55,6.2,15.25,4.4,18.42-11,14.91-27.31-6.21-46.89,6.16-64.74,23.9-11.41,11.34-11.31,13.12,1.71,23.03,52.56,40.01,87.6,90.65,96.09,157.4.96,7.55,4.74,10.74,11.77,12.02,16.93,3.1,33.83,2.95,50.52-.82,28.35-6.39,54.89-37.82,53.61-63.8-1.31-26.59-11.03-49.65-31.16-67.81-2.8-2.52-5.48-5.29-7.68-8.33-2.26-3.11-1.85-6.67.55-9.64,2.43-3.01,5.73-3.97,9.29-2.19,3.07,1.53,6.18,3.16,8.84,5.3,21.27,17.08,32.44,39.89,37.19,66.26,3,16.69,14.17,27.15,28.77,32.69,15.17,5.76,30.61,4.32,43.77-7.17,20.88-18.24,24.8-42.01,22.27-67.84-.4-4.06-2.55-8.17.62-11.86,2.21-2.57,4.51-5.5,8.69-4.33,6.04,1.7,9.12,6.31,10.34,11.9,2.54,11.64,2.67,23.49-.91,34.87-2.19,6.97.2,10.96,5.3,15.05,11.46,9.19,24.61,12.08,37.42,11.32Zm-233.6,437.37c0,.31,0,.62,0,.92,20.76,0,41.56.86,62.26-.24,20.92-1.11,37.32-17.9,37.65-38.66.55-33.86-.69-67.76-.29-101.63.3-25.55-18.95-41.68-44.32-40.72-16.25.62-32.54.65-48.8.23-7.63-.2-9.46,2.6-8.96,9.73,1.16,16.56,1.09,33.17,0,49.75-.43,6.5-3.98,9.14-10.32,8.6-5.82-.5-9.53-2.23-9.32-9.38.45-15.55-.63-31.17.43-46.66.58-8.51-1.25-10.37-9.7-10.17-44.28,1.06-88.28,7.19-132.63,7.03-12.42-.05-24.85,1.58-37.29,2.16-7.15.33-10.24,2.74-9.63,10.75.9,11.68.25,23.49.24,35.24,0,6.29-2.18,10.53-9.29,11.32-8.08.89-10.52-4.12-11.16-10.38-.66-6.5-.43-13.11-.35-19.67q.34-26.33-25.33-23.86c-33.04,3.2-66.09,6.4-99.13,9.67-39.63,3.91-78.37,13.2-117.58,19.69-30.08,4.98-59.51,12.42-86.01,28.57-18.82,11.47-19.96,22.07-3.39,36.33,9.5,8.17,19.93,14.9,31.8,19.16,31.95,11.46,65.05,18.61,98.17,25.49,29.48,6.12,59.51,8.64,89.46,11.58,8.2.81,10.45-1.22,10.23-9.05-.46-15.9-.19-31.81-.34-47.72-.07-7.39,2.96-12.13,10.73-12.35,8.08-.22,10.39,4.4,10.22,12-.35,15.55-.16,31.12.17,46.67.29,13.7,1.47,14.51,14.93,15.16,42.83,2.08,85.66,4.31,128.49,6.44,23.5,1.17,47.01,2.08,70.5,3.51,9.4.57,13.35-1.61,12.68-12.42-1.07-17.21.09-34.55.22-51.84.06-7.64,5.19-7.37,10.68-7.59,6.19-.25,7.6,2.73,7.54,8.17-.22,18.32.17,36.65-.38,54.96-.2,6.83,1.9,9.35,8.63,9.28,19.73-.2,39.45-.07,59.18-.07Zm119.61-159.96c15.37-16.46,32.88-29.49,49.13-43.91,3.34-2.96,5.93-5.73,6.05-10.21.25-10.1,3.23-19.74,4.87-29.6,8.59-51.77,16.13-103.73,26.93-155.12,1.28-6.1,2.85-12.17,2.08-18.45-1.01-8.17-9.38-7.02-14.08-10.52-11.37-8.45-12.77-8.63-20,2.72-11.09,17.41-27.02,25.42-46.74,26.3-9.01.4-12.53,4.63-15.12,12.38-13.47,40.27-27.31,80.41-41.02,120.6-2.85,8.35-8.78,11.71-14.33,7.94-4.02-2.73-4.95-7.39-6.23-11.65-7.24-24.13-14.19-48.35-21.59-72.43-4.55-14.79-4.84-14.7-19.07-10.72-.66.19-1.39.15-2.04.36-16.96,5.7-34.15,4.16-51.37,1.63-5.46-.8-9.32-.77-8.07,7.15,7.14,45.06,11.89,90.42,16.07,135.83.67,7.23,3,9.43,10.12,9.03,23.49-1.33,47.03-1.9,70.53-3.16,25.14-1.35,46.45,5.49,61.69,26.79,3.59,5.02,7.76,9.62,12.2,15.06Zm-337.97-310.91c11.99,0,21,.26,29.99-.08,8.25-.31,9.9-3.68,4.98-10.34-6-8.12-13.4-14.84-22.02-20.25-10.59-6.65-22.06-11.49-33.42-16.52-6.88-3.04-7-6.81-2.54-11.8,2.53-2.83,5.1-5.71,8.05-8.08,11.55-9.3,19.81-21.11,26.67-34.05,5.09-9.6,2.69-14.79-7.92-17.02-7.23-1.52-14.53-.78-21.71.19-14.68,1.98-26.72,9.8-36.88,19.76-7.34,7.2-3.29,17.81-4.2,26.9-.27,2.74-.08,5.53-.12,8.29-.11,7.63-1.88,13.91-11.35,13.95-9.36.03-9.15-7.45-9.23-13.19-.54-39.01,5.45-76.39,29.17-108.99,1.8-2.47,3.15-5.38,4.2-8.26,2.59-7.09.13-13-5.44-17.45-5.39-4.3-11.04-2.57-16.4.56-4.34,2.53-6.95,6.64-9.64,10.67-22.58,33.83-33.69,70.83-31.36,111.68.35,6.19,1.98,13.71-8.61,14.16-10.64.45-11.65-6.43-12.05-14.14-.85-16.3-.02-32.43,4.12-48.35,6.68-25.7,3.64-29.54-23.8-31.11-1.73-.1-3.47,0-5.19-.21-6.09-.75-8.48,1.6-8.99,7.98-.8,10,2.19,19.06,4.64,28.41,5.39,20.56,4.28,21.46-16.5,18.61-25.81-3.54-49.45,1.28-69.85,18.68-5.06,4.32-4.99,6.64.95,9.24,21.63,9.49,43.93,16.71,67.55,18.9,18.39,1.71,19.67,3.83,10.57,20.33-.5.91-1.04,1.79-1.53,2.71-9.95,18.57-15.38,38.36-16.26,59.43-.29,6.9,2.24,9.51,9.3,8.01,28.49-6.07,50.8-20.96,66.4-45.68,8.26-13.08,8.42-13.4,23.24-8.36,28.63,9.73,57.44,18,85.2,15.41Zm407.84,370.6c0,.18,0,.36,0,.54,20.07,0,40.14-.07,60.21.07,3.62.02,8.02-.71,9.63,4.12,1.55,4.64.33,9.06-2.49,12.72-2.96,3.85-7.68,2.46-11.66,2.48-38.41.11-76.82.02-115.24.12-3.16,0-8.89-1.9-8.9,2.37-.03,12.12-5.97,25.16,2.07,36.28,12.6,17.43,28.56,31.98,44.13,46.65,9.11,8.58,21,4.12,23.71-7.96,1.62-7.22,4.61-12.33,11.77-15.67,10.97-5.12,19.45.17,28.18,5.05,18.31,10.24,49.43,1.86,48.27-28.17-.5-12.86,4.94-20.95,15.24-27.07,4.15-2.47,8.22-5.11,12.22-7.82,11.13-7.54,17.57-17.57,15.68-31.5-1.98-14.59-10.94-23.56-24.41-28.05-17.64-5.87-19.36-7.96-18.7-26.54.09-2.42.11-4.85.38-7.25.96-8.54-4.81-12.39-11.08-15.73-6.02-3.2-10.61-.11-14.81,3.91-5.75,5.5-11.34,11.17-17.21,16.53-11.41,10.42-24.17,9.97-34.68-1.03-4.79-5.01-9.44-10.15-12.78-16.27-3.55-6.49-7.63-6.91-13.15-2.06-12.73,11.18-25.05,22.99-38.74,32.87-14.93,10.76-19.69,24.03-17.52,41.78.96,7.86,3.37,9.88,10.72,9.74,19.72-.38,39.44-.13,59.17-.13Zm63.39-270.8c4.48,0,8.97-.1,13.45.02,32.26.87,55.37-48.68,43.25-70.83-2.83-5.16-3.91-7.93-9.8-2.07-17.66,17.57-38.16,29.49-64.45,26.54-4.05-.45-5.68.95-6.19,4.76-.46,3.4-1.32,6.75-2.04,10.12-6.61,30.51-5.81,31.49,25.78,31.46Zm-315.4,79.86c-.59-.17-1.18-.34-1.78-.51-5.73,10.93-11.37,21.9-17.21,32.77-11.71,21.78-27.21,40.63-45.02,57.68-1.93,1.85-4.7,3.52-3.32,6.82,1,2.41,3.54,1.87,5.46,1.73,20.3-1.49,40.63-2.79,60.88-4.85,7.55-.77,13.1-3.79,8.68-13.73-2.28-5.13-2.07-11.46-2.57-17.28-1.8-20.87-3.43-41.76-5.12-62.64Zm123.7-13.89c3.39-.49,4.32-3.01,5.06-5.11,9.96-28.56,20.39-56.99,29.31-85.88,3.12-10.1-9.09-10.32-14.41-14.65-5.52-4.49-6.85,2.42-8.41,5.39-6.86,12.99-15.63,24.39-27.09,33.53-4.05,3.23-4.18,5.61-2.22,10.37,4.97,12.04,9.03,24.46,11.96,37.24,1.49,6.48,1.13,13.72,5.8,19.13Z"></path><path class="cls-1" d="m110.87,297.28c5.48,0,8.62,1.74,10.69,4.5,2.4,3.19,1.05,6.6-1.25,9.48-3.23,4.05-6.56,8.02-9.84,12.03-31.13,38-43.89,80.61-32.55,129.3.78,3.35.98,6.84,1.7,10.21,1.35,6.31-1.47,10.2-7.28,11.66-6.49,1.63-9.05-2.29-10.81-8.04-10.62-34.66-8.78-68.83,3.67-102.58,8.32-22.55,19.58-43.42,36.98-60.46,2.93-2.87,5.71-6.17,8.69-6.11Z"></path><path class="cls-1" d="m139.81,564.06c-6.31-.28-10.24-2.27-14.03-4.8-8.12-5.42-14.22-12.87-20.91-19.81-5.2-5.39-4.04-8.55.39-13.42,5.44-5.98,8.83-2.46,12.74,1.29,8.44,8.09,18.74,14.14,26.12,23.39,2.17,2.72,4.13,5.79,1.96,9.4-1.74,2.9-4.61,3.98-6.27,3.96Z"></path><path class="cls-1" d="m609.18,63.55c-12.95.43-25.57,1.74-35.61,11.44-1.93,1.87-4.58,3.15-7.1,4.2-4.98,2.07-9.58,1.53-12.75-3.37-2.81-4.35-2.39-8.7,1.34-12.24,3.24-3.07,6.68-6.09,10.48-8.4,35.34-21.48,77.14-14.15,103.92,19.05,3.13,3.88,6.91,8.95,1.57,13.73-5.03,4.51-10.23,2.65-14.79-1.57-2.03-1.88-4.01-3.83-6.16-5.56-3.76-3.03-7.53-6.08-11.49-8.83-8.82-6.12-18.74-8.62-29.41-8.45Z"></path><path class="cls-1" d="m547.84,127.6c0,5.74.21,8.52-.05,11.25-.43,4.61.49,10.92-6.6,10.6-6.39-.29-14.08-.98-15.04-9.56-.88-7.83-.81-15.85-.29-23.73.45-6.87,6.01-8.97,11.88-8.97,5.47,0,8.93,3.01,9.22,8.95.24,4.82.74,9.62.89,11.46Z"></path><path class="cls-1" d="m171.46,679.53c-6.28-.16-12.85.66-13.94-6.73-1.08-7.36,4.66-10.27,10.72-11.67,28.35-6.52,57.49-7.67,86.1-12.54,13.95-2.38,28.03-4.04,42.08-5.75,7.32-.89,14.13-.66,14.36,9.67.2,9.23-5.25,9.81-12.69,10.64-28.81,3.22-57.52,7.32-86.26,11.09-13.7,1.8-27.4,3.59-40.36,5.29Z"></path><path class="cls-1" d="m76.5,700.19c-3.25.53-5.33-1.31-6.86-4.45-2.04-4.16-1.93-7.9,1.2-11.48,5.63-6.45,28.74-12.55,36.89-9.9,3.41,1.11,5.32,3.17,5.42,6.63.16,5.4-2.3,9.64-7.41,11.22-9.51,2.95-19.21,5.28-29.23,7.98Z"></path></svg>