<svg xmlns="http://www.w3.org/2000/svg" id="Layer_1" data-name="Layer 1" viewBox="0 0 937.14 753.58"><defs><style>      .cls-1 {        fill: #fff;      }    </style></defs><path class="cls-1" d="m685.03,83.93c3.93-8.61,6.96-16.42,10.92-23.72,9.3-17.14,21.08-32.15,38.47-41.98,3.88-2.2,7.41-4.23,10.82.81,2.99,4.42,4.33,8.59.09,12.97-5.44,5.63-12.6,9.06-17.95,14.98-18.21,20.14-27.63,44.08-31.49,70.5-.86,5.85-4.88,13.09-.99,17.4,4.77,5.28,10.76-1.6,16.15-3,65.51-17.04,124.27-5.74,172.96,42.94,31.54,31.54,46.85,71.13,51.86,115.28,5.33,46.95-6.84,90.57-23.49,133.44-18.29,47.07-43.52,89.71-81.48,123.89-32.08,28.88-69.13,46.23-112.85,48.46-.59,4.33,3.13,6.85,4.65,10.28,18.2,40.94,11.91,85.15-19.73,116.91-43.84,44.01-113.48,38.97-150.24-5.96-5.77-7.05-8.11-2.73-11.25,1.05-17.03,20.48-39.24,31.25-65.23,34.55-31.12,3.96-58.06-6-81.5-26.08-4.12-3.53-6.26-4.33-10.89-.33-58.5,50.59-149.64,20.79-167.46-54.7-2.27-9.64-2.66-19.66-1.03-29.58,1.14-6.94-.31-10.39-8.71-11.51-31.29-4.16-56.84-18.6-74.29-45.57-3.17-4.9-6.42-4.44-10.58-2.27-21.31,11.11-44.66,15.66-67.78,20.89-11.91,2.69-14.07,1.53-15.81-10.29-4.92-33.52,1.29-64.14,25.94-88.99,6.71-6.77.05-7.02-3.32-8.61-29.41-13.8-49.05-36.03-58.52-67.16-4.41-14.48-3.41-16.25,11.22-19.77,46.45-11.15,93.05-15.06,139.99-2.94,1.41.36,2.95.73,4.39-.86-.46-5.24-4.31-8.98-7.52-12.68-32.02-37-49.66-80.37-57.48-128.18-.87-5.34-2-10.64-2.54-16.01-.51-5.06,1.49-8.99,7-9.82,5.45-.83,9.57,1.12,10.78,6.92,1.66,7.93,3.31,15.88,4.56,23.88,4.72,30.05,15.23,58.03,30.96,83.92,12.08,19.88,26.87,37.67,44.95,52.53,1.32,1.08,2.78,1.99,5.03,3.59,1.17-13.26-.61-25.45,1.6-37.59,7.73-42.35,41.51-77.63,83.68-84.02,43.62-6.61,83.92,12.43,104.45,48.72,3.54,6.26,6.07,6.87,10.94,1.49,8.01-8.84,18.3-14.8,29.19-19.12,6.61-2.62,7.8-6.3,8.12-12.8,2.92-59.87,23.8-111.27,72.7-148.56,22.32-17.02,47.4-28.33,75.75-30.92,6.93-.63,8.34-1.69,3.81-8.1-22.27-31.48-31.92-66.9-31.33-105.26.17-11.17,1.65-12.98,13.38-12.93,53.11.24,89.89,22.62,111.54,70.37,1.96,4.33,3.19,9.04,7.55,13.56Zm232.05,230.22c1.69-25.09-3.65-48.7-11.98-71.81-17.35-48.14-51.17-79.53-99.73-93.72-37.33-10.91-74.45-6.77-109.92,9.51-7.48,3.43-14.27,4.91-22.12.46-19.82-11.23-41.85-15.35-64.16-15.76-93.33-1.71-153.61,69.99-159.31,159.25-.37,5.83,1.77,8.24,7.76,7.89,9-.54,18.01-.56,26.9,1.58,50.04,12.05,89.44,61.59,79.59,116.31-1.15,6.37.64,9.29,7.31,10.3,18.25,2.77,34.76,10.29,48.34,22.56,24.09,21.78,37.74,48.77,36.05,82.02-.35,6.81,1.75,9.94,8.21,12.36,11.77,4.42,23.46,9.44,32.61,18.63,3.08,3.09,6.85,3.06,10.86,3.13,46.21.81,85.49-16.23,117.35-48.7,58.2-59.33,87.17-131.73,92.25-214.03Zm-455.88,203.05c5.18-47.56-38.36-84.44-83.44-83.92-46.06.53-82.44,38.78-82.47,85.13-.03,41.42,35.32,82.84,85.73,82.34,42.7-.42,85.44-39.44,80.18-83.56Zm168.69,217.54c13.94-.35,28.25-2.83,40.91-10.12,45.07-25.99,56.19-86.29,23.86-127.28-34.16-43.31-106.81-38.55-135.4,8.77-1.87,3.09-1.48,5.73-.32,8.49,10.29,24.49,9.39,49.14.78,73.75-1.58,4.51-1.45,7.92,1.44,11.64,17.27,22.25,39.75,34.15,68.73,34.76Zm-161.95-.02c20.78-.43,43.27-8.08,59.51-27.85,35.92-43.73,23.97-115.32-39.68-135.78-15.94-5.12-17.02-4.82-27.13,8.44-2.36,3.09-5.12,5.9-7.85,8.68-16.08,16.36-35.64,26.22-58.03,30.53-5.03.97-8.75,2.26-10.49,8-16.43,54.38,22.57,107.64,83.66,107.99Zm-246.86-289.9c-15.55-.46-26.97,2.99-38.05,7.95-30.79,13.78-52.7,48.84-50.02,80.05,3.78,44.05,35.76,76.04,79.86,80.1,5.54.51,9.3-1.21,11.67-6.23,10.67-22.59,26.87-39.64,50.14-49.42,5.8-2.44,7.23-6.24,5.84-12.17-4.83-20.58-4.64-41.13,1.71-61.4,1.57-5.01.16-8.41-3.35-12.02-16.75-17.28-37.22-25.88-57.8-26.85Zm-7.67-53.3c-.57,8.1,1.47,17.47,4,26.79,1.4,5.15,4.07,8.25,9.82,8.84,22.89,2.36,42.81,11.5,59.37,27.45,4.93,4.75,8.15,4.46,12.3-.77,14.49-18.25,33.17-30.25,55.75-35.98,5.11-1.3,7.39-3.35,7.18-9.21-.51-14.37,3.03-28.04,9.97-40.64,2.92-5.31,2.67-9.87.14-15.25-16.21-34.49-56.04-54.43-92.85-46.22-39.98,8.91-65.76,41.63-65.69,84.99Zm105.44,341.1c18.37.74,37.4-6.04,54.15-19.73,3.72-3.04,5.64-5.58,2.58-10.42-15.03-23.76-17.39-49.45-10.41-76.19,1.54-5.9-.13-8.03-5.76-9.22-24.64-5.21-45.07-17.35-61.12-37.03-8.95-10.98-9.32-10.67-21.91-3.77-32.94,18.06-49.97,56.21-40.94,91.76,10.25,40.37,39.97,64.32,83.41,64.6Zm227.7-321.52c-.24-45.25-34.93-80.78-80.98-82.15-36.36-1.08-75.52,21.5-85.13,69.32-2.62,13.03-2.59,14.13,10.49,16.6,34.29,6.48,61.68,22.78,78.38,54.39,2.8,5.3,4.52,4.39,8.31.78,14.23-13.57,29.78-25.24,49.33-30.18,18.44-4.67,18.45-4.61,19.43-24.26.07-1.5.14-3,.19-4.5Zm6.88,44.99c-30.09-.68-52.35,11.96-69.22,35.08-3.32,4.56-4.53,9.34-3.78,15.2,1.47,11.38,1,22.87-2.44,33.92-1.85,5.95-.53,8.43,5.7,10.24,23.46,6.81,44.69,17.61,60.29,37.24,2.76,3.47,4.15,4.04,6.94-.19,6.91-10.47,16.69-17.98,27.46-24.15,16.14-9.24,33.31-15.01,52.16-15.01,4.26,0,8.31.03,8.1-6.61-1.39-44.73-33.77-88.56-85.22-85.71Zm-372.47-21.23c-4.48-4.89-9.25-5.88-13.71-7.11-20.31-5.61-40.97-9.54-62.04-10.58-25.65-1.26-51.03,1.16-76.06,6.95-5.04,1.16-9.28,2.59-5.4,9.61,13.28,24.02,30.59,43.07,58.47,49.87,2.03.5,4.05,1.19,5.95,2.06,8.8,4,9.89,10.03,3.02,16.73-3.01,2.94-6.18,5.71-9.22,8.63-18.65,17.91-26.5,40.29-26.94,65.65-.06,3.62-1.04,8.81,5.78,6.79,18.37-5.44,37.43-8.67,54.69-17.76,4.52-2.38,5.43-4.47,3.9-9.04-12.29-36.62-.47-67.78,22.45-96.14,9.96-12.32,22.46-21.42,39.11-25.66ZM571.55,24.43c.48,4.78.83,9.57,1.48,14.33,3.8,28.11,11.79,54.47,31.69,75.89,5.03,5.42,10.63,9.92,18.11,10.93,15.79,2.14,31.36,5.05,46.37,10.57,4.24,1.56,6.23.81,5.22-4.38-1.61-8.23-2.46-16.62-4.16-24.83-8.87-42.73-34.98-83.84-92.59-88.29-4.97-.38-6.78,1-6.11,5.77Z"></path><path class="cls-1" d="m854.94,328.72c-.82-54.74-21.33-92.86-65.62-117.07-6.92-3.78-14.63-5.32-21.98-7.89-5.4-1.89-10.66-4.66-8.42-11.51,2.03-6.23,7.5-7.05,13.39-5.65,39.81,9.5,67.79,34.21,85.74,69.85,17.4,34.55,19.13,71.31,10.25,108.8-3.26,13.75-6.73,27.39-12.61,40.24-2.04,4.47-4.21,9.82-11.38,6.26-6.24-3.09-8.1-7-5.45-13.76,9.35-23.89,15.58-48.51,16.09-69.29Z"></path><path class="cls-1" d="m799.45,492.9c-7.08.18-12.32-8.07-8.39-13.51,7.5-10.4,15.97-20.12,24.27-29.92,2.14-2.53,5.3-2.95,7.92-.3,2.6,2.64,7.73,4.99,5.47,9.24-6.77,12.74-15.57,24.08-26.62,33.51-.83.71-2.18.81-2.65.97Z"></path></svg>